# AST/ASF file generated using VICON BodyLanguage
# -----------------------------------------------
:version 1.10
:name VICON
:units
  mass 1.0
  length 0.45
  angle deg
:documentation
   .ast/.asf automatically generated from VICON data using
   VICON BodyBuilder and BodyLanguage model FoxedUp or BRILLIANT.MOD
:root
   order TX TY TZ RX RY RZ
   axis XYZ
   position 0 0 0  
   orientation 0 0 0 
:bonedata
  begin
     id 1 
     name lhipjoint
     direction 0.630082 -0.636569 0.44472 
     length 2.82754 
     axis 0 0 0  XYZ
  end
  begin
     id 2 
     name lfemur
     direction 0.34202 -0.939693 0  
     length 7.26371  
     axis 0 0 20  XYZ
    dof rx ry rz
    limits (-160.0 20.0)
           (-70.0 70.0)
           (-60.0 70.0)
  end
  begin
     id 3 
     name ltibia
     direction 0.34202 -0.939693 0   
     length 7.88616   
     axis 0 0 20   XYZ
    dof rx
    limits (-10.0 170.0)
  end
  begin
     id 4 
     name lfoot
     direction 0.0603448 -0.165796 0.984312   
     length 1.77861   
     axis -90 7.62852e-016 20   XYZ
    dof rx rz
    limits (-45.0 90.0)
           (-70.0 20.0)
  end
  begin
     id 5 
     name ltoes
     direction 1.53577e-011 -4.21876e-011 1   
     length 0.902235   
     axis -90 7.62852e-016 20   XYZ
    dof rx
    limits (-90.0 20.0)
  end
  begin
     id 6 
     name rhipjoint
     direction -0.656778 -0.61817 0.431866   
     length 2.9117  
     axis 0 0 0  XYZ 
  end
  begin
     id 7 
     name rfemur
     direction -0.34202 -0.939693 0   
     length 6.81603   
     axis 0 0 -20   XYZ
    dof rx ry rz
    limits (-160.0 20.0)
           (-70.0 70.0)
           (-70.0 60.0)
  end
  begin
     id 8 
     name rtibia
     direction -0.34202 -0.939693 0   
     length 8.05997   
     axis 0 0 -20   XYZ
    dof rx
    limits (-10.0 170.0)
 end
 begin
     id 9 
     name rfoot
     direction -0.0862404 -0.236944 0.967688   
     length 1.84899  
     axis -90 -7.62852e-016 -20   XYZ
    dof rx rz
    limits (-45.0 90.0)
           (-20.0 70.0)
  end
  begin
     id 10 
     name rtoes
     direction -1.53561e-011 -4.21798e-011 1   
     length 0.931579   
     axis -90 -7.62852e-016 -20   XYZ
    dof rx
    limits (-90.0 20.0)
  end
  begin
     id 11 
     name lowerback
     direction -0.0110203 0.991769 -0.127564   
     length 2.05686   
     axis 0 0 0   XYZ
    dof rx ry rz
    limits (-20.0 45.0)
           (-30.0 30.0)
           (-30.0 30.0)
  end
  begin
     id 12 
     name upperback
     direction 0.0109719 0.99993 -0.00432479   
     length 2.06234   
     axis 0 0 0   XYZ
    dof rx ry rz
    limits (-20.0 45.0)
           (-30.0 30.0)
           (-30.0 30.0)
  end
  begin
     id 13 
     name thorax
     direction 0.0173308 0.998351 0.0547306   
     length 2.09856   
     axis 0 0 0   XYZ
    dof rx ry rz
    limits (-20.0 45.0)
           (-30.0 30.0)
           (-30.0 30.0)
  end
  begin
     id 14 
     name lowerneck
     direction -0.0311736 0.989033 0.144366   
     length 1.98151   
     axis 0 0 0   XYZ
    dof rx ry rz
    limits (-20.0 45.0)
           (-30.0 30.0)
           (-30.0 30.0)
  end
  begin
     id 15 
     name upperneck
     direction 0.0421057 0.975772 -0.214698   
     length 2.01457   
     axis 0 0 0   XYZ
    dof rx ry rz
    limits (-20.0 45.0)
           (-30.0 30.0)
           (-30.0 30.0)
  end
  begin
     id 16
     name head
     direction 0.0136911 0.995958 -0.0887718  
     length 2.03562  
     axis 0 0 0   XYZ
    dof rx ry rz
    limits (-20.0 45.0)
           (-30.0 30.0)
           (-30.0 30.0)
  end
  begin
     id 17 
     name lclavicle
     direction 0.915335 0.396201 0.0720134  
     length 4.16217  
     axis 0 0 0   XYZ
    dof ry rz
    limits (-20.0 10.0)
           (0.0 20.0)
  end
  begin
     id 18 
     name lhumerus
     direction 1 -4.48965e-011 6.383e-018   
     length 4.93042   
     axis -180 -30 -90   XYZ
    dof rx ry rz
    limits (-60.0 90.0)
           (-90.0 90.0)
           (-90.0 90.0)
  end
  begin
     id 19
     name lradius
     direction 1 -4.48972e-011 8.8689e-027   
     length 3.68177   
     axis -180 -30 -90   XYZ
    dof rx
    limits (-10.0 170.0)
  end
  begin
     id 20
     name lwrist
     direction 1 -4.48953e-011 1.17971e-026   
     length 1.84089   
     axis -7.69454e-015 90 90   XYZ
    dof ry
    limits (-180.0 0.0)
 end
  begin
     id 21 
     name lhand
     direction 1 -4.49027e-011 2.35802e-026   
     length 0.721479   
     axis -1.50533e-014 90 90   XYZ
    dof rx rz
    limits (-90.0 90.0)
           (-45.0 45.0)
  end
  begin
     id 22 
     name lfingers
     direction 1 -4.48915e-011 4.72027e-026   
     length 0.581675   
     axis -3.01059e-014 90 90   XYZ
    dof rx
    limits (0.0 90.0)
  end
  begin
     id 23
     name lthumb
     direction 0.707107 -6.34948e-011 0.707107   
     length 0.835172   
     axis -90 45 -5.12164e-014   XYZ
    dof rx rz
    limits (-45.0 45.0)
           (-45.0 45.0)
  end
  begin
     id 24 
     name rclavicle
     direction -0.882781 0.469197 0.0234974   
     length 3.95647  
     axis 0 0 0   XYZ 
    dof ry rz
    limits (-10.0 20.0)
           (-20.0 0.0)
  end
  begin
     id 25 
     name rhumerus
     direction -1 -4.48965e-011 -1.54906e-018  
     length 5.07905   
     axis -180 30 90   XYZ
    dof rx ry rz
    limits (-90.0 60.0)
           (-90.0 90.0)
           (-90.0 90.0)
  end
  begin
     id 26 
     name rradius
     direction -1 -4.48972e-011 5.47489e-027   
     length 3.54394   
     axis -180 30 90   XYZ
    dof rx
    limits (-10.0 170.0)
  end
  begin
     id 27 
     name rwrist
     direction -1 -4.48955e-011 1.17969e-026   
     length 1.77197   
     axis -7.69454e-015 -90 -90   XYZ
    dof ry
    limits (-180.0 0.0)
  end
  begin
     id 28
     name rhand
     direction -1 -4.48982e-011 2.35888e-026   
     length 0.681156   
     axis -1.50533e-014 -90 -90   XYZ
    dof rx rz
    limits (-90.0 90.0)
           (-45.0 45.0)
  end
  begin
     id 29
     name rfingers
     direction -1 -4.48955e-011 4.71877e-026   
     length 0.549165   
     axis -3.01059e-014 -90 -90   XYZ
    dof rx
    limits (0.0 90.0)
  end
  begin
     id 30
     name rthumb
     direction -0.707107 -6.3491e-011 0.707107   
     length 0.788495   
     axis -90 -45 5.12164e-014   XYZ
    dof rx rz
    limits (-45.0 45.0)
           (-45.0 45.0)
  end
:hierarchy
  begin
    root lhipjoint rhipjoint lowerback
    lhipjoint lfemur
    lfemur ltibia
    ltibia lfoot
    lfoot ltoes
    rhipjoint rfemur
    rfemur rtibia
    rtibia rfoot
    rfoot rtoes
    lowerback upperback
    upperback thorax
    thorax lowerneck lclavicle rclavicle
    lowerneck upperneck
    upperneck head
    lclavicle lhumerus
    lhumerus lradius
    lradius lwrist
    lwrist lhand lthumb
    lhand lfingers
    rclavicle rhumerus
    rhumerus rradius
    rradius rwrist
    rwrist rhand rthumb
    rhand rfingers
  end

#!OML:ASF H:\Bending\Project 1\Capture day 1\Session 1\Subject.ASF
:FULLY-SPECIFIED
:DEGREES
112
root -11.3726 11.7338 -16.3842 -36.9501 90.8531 -35.7083
lowerback 54.8125 -3.9812 4.72169
upperback 5.00074 -0.352529 0.277862
thorax -15.7341 0.267743 -1.82308
lowerneck -23.8616 -4.36404 -8.63551
upperneck 10.0763 -4.20507 6.77977
head 7.25827 -1.70092 3.0962
rclavicle -2.34566e-014 -4.45278e-014
rhumerus 16.3666 -12.8432 -101.232
rradius 27.1444
rwrist 13.9214
rhand -20.1927 -17.8635
rfingers 7.12502
rthumb 6.1538 -47.7541
lclavicle -2.34566e-014 -4.45278e-014
lhumerus 23.4626 3.27912 103.902
lradius 17.1125
lwrist 6.60115
lhand -42.2724 12.0713
lfingers 7.12502
lthumb -15.1575 41.4962
rfemur -62.562 -53.8953 7.93771
rtibia 113.746
rfoot -32.1356 15.9076
rtoes 0.184803
lfemur -62.1628 37.244 -8.36767
ltibia 111.767
lfoot -16.5268 -36.2193
ltoes 1.244
113
root -11.3581 11.6129 -16.3869 -30.329 90.8893 -28.8116
lowerback 55.4302 -4.15396 4.91321
upperback 4.88156 -0.369725 0.301425
thorax -15.9334 0.256794 -1.86706
lowerneck -23.918 -4.38456 -8.70407
upperneck 10.013 -4.18239 6.66435
head 7.2423 -1.70244 3.07065
rclavicle 1.19271e-014 -9.14409e-015
rhumerus 15.652 -13.7777 -102.01
rradius 28.7778
rwrist 13.7215
rhand -21.1276 -18.2318
rfingers 7.12502
rthumb 5.25116 -48.1467
lclavicle 1.19271e-014 -9.14409e-015
lhumerus 23.2729 3.55225 104.316
lradius 17.5731
lwrist 6.47979
lhand -42.1674 12.3968
lfingers 7.12502
lthumb -15.0564 41.8293
rfemur -62.534 -55.2681 6.98176
rtibia 114.946
rfoot -31.8523 17.2536
rtoes -1.38192
lfemur -62.5812 38.0165 -7.96952
ltibia 112.969
lfoot -16.2344 -36.7386
ltoes 0.77093
114
root -11.3453 11.5057 -16.3896 -22.9487 90.8821 -21.1927
lowerback 56.0529 -4.30155 5.08887
upperback 4.74376 -0.359775 0.350352
thorax -16.151 0.255009 -1.88728
lowerneck -24.0244 -4.37837 -8.74979
upperneck 10.0448 -4.12466 6.51086
head 7.26149 -1.68978 3.03346
rclavicle -1.31198e-014 -2.10712e-014
rhumerus 15.1229 -14.6248 -102.694
rradius 29.8985
rwrist 14.3023
rhand -22.1873 -18.7685
rfingers 7.12502
rthumb 4.22788 -48.7063
lclavicle -1.31198e-014 -2.10712e-014
lhumerus 22.9744 3.64131 104.623
lradius 18.0942
lwrist 6.43906
lhand -41.9143 12.7176
lfingers 7.12502
lthumb -14.8126 42.1681
rfemur -62.4609 -56.4592 6.14121
rtibia 115.977
rfoot -31.6729 18.4843
rtoes -2.85234
lfemur -62.9479 38.7463 -7.54851
ltibia 114.037
lfoot -16.0653 -37.1734
ltoes 0.391902
115
root -11.3347 11.411 -16.3914 -14.5631 90.8591 -12.5851
lowerback 56.6976 -4.4248 5.24832
upperback 4.5925 -0.324447 0.407816
thorax -16.3824 0.262746 -1.90196
lowerneck -24.1549 -4.3671 -8.79204
upperneck 10.1057 -4.06453 6.38469
head 7.29476 -1.67305 3.00527
rclavicle -6.36111e-015 1.27222e-014
rhumerus 14.7554 -15.3056 -103.217
rradius 30.5477
rwrist 15.3369
rhand -23.0346 -19.2428
rfingers 7.12502
rthumb 3.40967 -49.1952
lclavicle -6.36111e-015 1.27222e-014
lhumerus 22.6237 3.56997 104.854
lradius 18.5692
lwrist 6.49013
lhand -41.5244 13.0625
lfingers 7.12502
lthumb -14.437 42.5403
rfemur -62.351 -57.4853 5.42255
rtibia 116.864
rfoot -31.6143 19.52
rtoes -3.95981
lfemur -63.2448 39.4054 -7.1102
ltibia 114.976
lfoot -15.9977 -37.5317
ltoes 0.044114
116
root -11.327 11.3271 -16.3918 -5.89591 90.849 -3.70148
lowerback 57.2253 -4.50896 5.36569
upperback 4.53712 -0.267423 0.475923
thorax -16.4842 0.287739 -1.89802
lowerneck -24.3262 -4.3767 -8.85241
upperneck 10.0898 -4.03089 6.33385
head 7.3133 -1.66068 3.00139
rclavicle 2.22639e-014 2.66371e-014
rhumerus 14.6068 -15.7295 -103.546
rradius 30.8142
rwrist 16.5479
rhand -23.3849 -19.3489
rfingers 7.12502
rthumb 3.07142 -49.3065
lclavicle 2.22639e-014 2.66371e-014
lhumerus 22.3635 3.30165 105.032
lradius 18.9283
lwrist 6.67294
lhand -41.0495 13.4239
lfingers 7.12502
lthumb -13.9793 42.9339
rfemur -62.214 -58.3809 4.80155
rtibia 117.638
rfoot -31.6535 20.3301
rtoes -4.66673
lfemur -63.4723 39.9557 -6.67216
ltibia 115.794
lfoot -16.0024 -37.8173
ltoes -0.416818
